<svg width="175" height="175" viewBox="0 0 175 175" fill="none" xmlns="http://www.w3.org/2000/svg">
<path d="M158.812 49.4375C159.576 48.6727 160.096 47.6987 160.307 46.6385C160.517 45.5783 160.409 44.4794 159.996 43.4807C159.582 42.4821 158.882 41.6283 157.983 41.0273C157.085 40.4264 156.029 40.1051 154.948 40.1041H134.896V20.0521C134.895 18.9711 134.573 17.9148 133.972 17.0163C133.372 16.1179 132.518 15.4177 131.519 15.0041C130.52 14.5906 129.422 14.4823 128.361 14.6929C127.301 14.9036 126.327 15.4236 125.562 16.1875L107.333 34.4166C106.307 35.4413 105.73 36.8313 105.729 38.2812V58.9604L91.2769 73.4125C89.1163 72.8376 86.8525 72.7665 84.66 73.2046C82.4675 73.6427 80.4049 74.5783 78.631 75.9393C76.8572 77.3003 75.4195 79.0504 74.4287 81.0548C73.438 83.0591 72.9206 85.2642 72.9165 87.5C72.9175 89.5754 73.3614 91.6267 74.2186 93.5168C75.0759 95.4069 76.3266 97.0923 77.8874 98.4602C79.4481 99.8282 81.2829 100.847 83.269 101.449C85.2552 102.052 87.347 102.223 89.4046 101.952C91.4622 101.681 93.4383 100.973 95.2008 99.8776C96.9632 98.7816 98.4714 97.3221 99.6246 95.5966C100.778 93.8711 101.549 91.9193 101.888 89.8716C102.226 87.824 102.124 85.7277 101.587 83.7229L116.039 69.2708H136.719C138.168 69.2695 139.559 68.6925 140.583 67.6666L158.812 49.4375V49.4375ZM87.4999 14.5833C96.0144 14.5722 104.465 16.0555 112.467 18.9656L102.171 29.2614C101.719 29.7135 101.296 30.2094 100.924 30.7198C88.5716 27.8025 75.605 28.9935 63.9908 34.112C52.3767 39.2305 42.7488 47.9973 36.5677 59.0825C30.3866 70.1676 27.9895 82.9663 29.7401 95.537C31.4907 108.108 37.2934 119.765 46.268 128.739C55.2426 137.714 66.8994 143.517 79.4701 145.267C92.0408 147.018 104.839 144.621 115.925 138.439C127.01 132.258 135.777 122.63 140.895 111.016C146.014 99.4022 147.205 86.4355 144.287 74.0833C144.798 73.7041 145.286 73.2812 145.746 72.8291L156.027 62.5333C158.939 70.5347 160.425 78.9851 160.416 87.5C160.416 127.772 127.772 160.417 87.4999 160.417C47.228 160.417 14.5833 127.772 14.5833 87.5C14.5833 47.2281 47.228 14.5833 87.4999 14.5833ZM87.4999 43.75C91.2769 43.75 94.9374 44.2312 98.4374 45.1354V55.9416L95.4186 58.9604C95.2974 59.0799 95.1783 59.2014 95.0613 59.325C90.7394 58.1724 86.2105 58.028 81.824 58.9029C77.4374 59.7779 73.3105 61.6488 69.7615 64.3713C66.2126 67.0938 63.3364 70.5951 61.3549 74.6052C59.3735 78.6153 58.3396 83.027 58.3332 87.5C58.3362 91.6505 59.2249 95.7526 60.9401 99.5321C62.6552 103.312 65.1573 106.682 68.279 109.417C71.4008 112.152 75.0704 114.189 79.0426 115.393C83.0148 116.596 87.1981 116.938 91.313 116.396C95.4278 115.853 99.3795 114.438 102.904 112.246C106.428 110.054 109.444 107.135 111.75 103.684C114.056 100.233 115.599 96.3301 116.276 92.2351C116.953 88.1402 116.748 83.9479 115.675 79.9385L116.039 79.5812L119.058 76.5625H129.872C132.153 85.3965 131.615 94.7227 128.333 103.236C125.051 111.749 119.19 119.023 111.57 124.041C103.95 129.058 94.9516 131.567 85.8345 131.218C76.7174 130.868 67.9378 127.677 60.7241 122.091C53.5104 116.505 48.2237 108.803 45.6037 100.063C42.9837 91.3239 43.1615 81.9839 46.1123 73.3505C49.0631 64.7171 54.6391 57.2222 62.0602 51.9146C69.4813 46.607 78.3761 43.7523 87.4999 43.75V43.75Z" fill="#F8F8F8"/>
</svg>
