<svg width="150" height="150" viewBox="0 0 150 150" fill="none" xmlns="http://www.w3.org/2000/svg">
<g clip-path="url(#clip0_15_175)">
<path d="M102.525 12.435C118.297 8.73001 133.762 14.1 141.037 23.19C147.757 31.5825 150.81 40.305 149.812 53.175C149.1 62.4525 146.062 69.33 140.077 76.8975C138.975 78.2925 137.767 79.725 136.245 81.465L132.135 86.1C126.135 92.8725 108.472 109.823 78.8624 137.25C77.8004 138.222 76.4113 138.759 74.9716 138.753C73.5318 138.748 72.147 138.2 71.0924 137.22C45.6749 113.4 29.2199 97.71 21.6749 90.105C7.74745 76.05 2.44495 67.875 0.524946 54.6975C-1.50005 40.8975 2.36245 29.58 11.0099 20.79C19.1249 12.54 33.6374 9.48001 47.9699 12.39C56.3624 14.1 65.2949 19.59 74.9699 28.7475C83.2274 20.28 92.4224 14.7975 102.532 12.435H102.525Z" fill="#F8F8F8"/>
</g>
<defs>
<clipPath id="clip0_15_175">
<rect width="150" height="150" fill="white"/>
</clipPath>
</defs>
</svg>
