<svg width="176" height="140" viewBox="0 0 176 140" fill="none" xmlns="http://www.w3.org/2000/svg">
<g clip-path="url(#clip0_15_173)">
<path d="M85.2539 43.8594C86.1076 43.7773 86.9612 43.75 87.8149 43.75C103.974 43.75 117.084 55.2617 117.084 70C117.084 84.4922 103.974 96.25 87.8149 96.25C71.3817 96.25 58.5461 84.4922 58.5461 70C58.5461 69.2344 58.5766 68.4688 58.6681 67.7031C61.5035 68.9336 64.7962 70 68.3024 70C79.0648 70 87.8149 62.1523 87.8149 52.5C87.8149 49.3555 86.6259 46.4023 85.2539 43.8594ZM146.535 30.7891C160.804 42.6562 170.347 56.6289 174.859 66.6367C175.865 68.7969 175.865 71.2031 174.859 73.3633C170.347 83.125 160.804 97.0977 146.535 109.211C132.175 121.187 112.449 131.25 87.8149 131.25C63.1803 131.25 43.4544 121.187 29.1005 109.211C14.832 97.0977 5.29524 83.125 0.758888 73.3633C0.263568 72.2976 0.00854492 71.1545 0.00854492 70C0.00854492 68.8455 0.263568 67.7024 0.758888 66.6367C5.29524 56.6289 14.832 42.6562 29.1005 30.7891C43.4544 18.8234 63.1803 8.75 87.8149 8.75C112.449 8.75 132.175 18.8234 146.535 30.7891V30.7891ZM87.8149 30.625C63.5767 30.625 43.9117 48.2617 43.9117 70C43.9117 91.7383 63.5767 109.375 87.8149 109.375C112.053 109.375 131.718 91.7383 131.718 70C131.718 48.2617 112.053 30.625 87.8149 30.625Z" fill="#F8F8F8"/>
</g>
<defs>
<clipPath id="clip0_15_173">
<rect width="175.63" height="140" fill="white"/>
</clipPath>
</defs>
</svg>
